<svg xmlns="http://www.w3.org/2000/svg" xmlns:xlink="http://www.w3.org/1999/xlink" contentStyleType="text/css" data-diagram-type="MINDMAP" height="1193px" preserveAspectRatio="none" style="width:2306px;height:1193px;background:#FFFFFF;" version="1.1" viewBox="0 0 2306 1193" width="2306px" zoomAndPan="magnify"><title>Application modernization</title><defs/><g><g class="title" data-source-line="3"><text fill="#000000" font-family="sans-serif" font-size="14" font-weight="bold" lengthAdjust="spacing" textLength="166.1133" x="1068.6499" y="32.9883">Application modernization</text></g><rect fill="#FFA500" height="36.4063" rx="12.5" ry="12.5" style="stroke:#181818;stroke-width:1.5;" width="109.667" x="1099.8066" y="586.5859"/><text fill="#000000" font-family="sans-serif" font-size="14" lengthAdjust="spacing" textLength="89.667" x="1109.8066" y="609.5742">Modernization</text><rect fill="#F1F1F1" height="36.4063" rx="12.5" ry="12.5" style="stroke:#181818;stroke-width:1.5;" width="78.3447" x="1259.4736" y="337.6563"/><text fill="#000000" font-family="sans-serif" font-size="14" lengthAdjust="spacing" textLength="58.3447" x="1269.4736" y="360.6445">Solutions</text><rect fill="#F1F1F1" height="36.4063" rx="12.5" ry="12.5" style="stroke:#181818;stroke-width:1.5;" width="58.9102" x="1387.8184" y="57.4063"/><text fill="#000000" font-family="sans-serif" font-size="14" lengthAdjust="spacing" textLength="38.9102" x="1397.8184" y="80.3945">Scope</text><text fill="#000000" font-family="sans-serif" font-size="14" lengthAdjust="spacing" textLength="148.1758" x="1499.7285" y="71.1914">On essential complexity</text><path d="M1446.7285,75.6094 L1456.7285,75.6094 C1471.7285,75.6094 1471.7285,66.4063 1486.7285,66.4063 L1496.7285,66.4063" fill="none" style="stroke:#181818;stroke-width:1;"/><text fill="#000000" font-family="sans-serif" font-size="14" lengthAdjust="spacing" textLength="107.6045" x="1499.7285" y="89.5977">On core business</text><path d="M1446.7285,75.6094 L1456.7285,75.6094 C1471.7285,75.6094 1471.7285,84.8125 1486.7285,84.8125 L1496.7285,84.8125" fill="none" style="stroke:#181818;stroke-width:1;"/><path d="M1337.8184,355.8594 L1347.8184,355.8594 C1362.8184,355.8594 1362.8184,75.6094 1377.8184,75.6094 L1387.8184,75.6094" fill="none" style="stroke:#181818;stroke-width:1;"/><rect fill="#F1F1F1" height="36.4063" rx="12.5" ry="12.5" style="stroke:#181818;stroke-width:1.5;" width="78.4814" x="1387.8184" y="230.9297"/><text fill="#000000" font-family="sans-serif" font-size="14" lengthAdjust="spacing" textLength="58.4814" x="1397.8184" y="253.918">Practices</text><rect fill="#F1F1F1" height="36.4063" rx="12.5" ry="12.5" style="stroke:#181818;stroke-width:1.5;" width="129.3545" x="1516.2998" y="104.0156"/><text fill="#000000" font-family="sans-serif" font-size="14" lengthAdjust="spacing" textLength="109.3545" x="1526.2998" y="127.0039">Remodularization</text><path d="M1466.2998,249.1328 L1476.2998,249.1328 C1491.2998,249.1328 1491.2998,122.2188 1506.2998,122.2188 L1516.2998,122.2188" fill="none" style="stroke:#181818;stroke-width:1;"/><rect fill="#F1F1F1" height="36.4063" rx="12.5" ry="12.5" style="stroke:#181818;stroke-width:1.5;" width="135.3223" x="1516.2998" y="160.4219"/><text fill="#000000" font-family="sans-serif" font-size="14" lengthAdjust="spacing" textLength="115.3223" x="1526.2998" y="183.4102">Application design</text><rect fill="#F1F1F1" height="36.4063" rx="12.5" ry="12.5" style="stroke:#181818;stroke-width:1.5;" width="100.6641" x="1701.6221" y="132.2188"/><text fill="#000000" font-family="sans-serif" font-size="14" lengthAdjust="spacing" textLength="80.6641" x="1711.6221" y="155.207">Tactical DDD</text><path d="M1651.6221,178.625 L1661.6221,178.625 C1676.6221,178.625 1676.6221,150.4219 1691.6221,150.4219 L1701.6221,150.4219" fill="none" style="stroke:#181818;stroke-width:1;"/><rect fill="#F1F1F1" height="36.4063" rx="12.5" ry="12.5" style="stroke:#181818;stroke-width:1.5;" width="164.6416" x="1701.6221" y="188.625"/><text fill="#000000" font-family="sans-serif" font-size="14" lengthAdjust="spacing" textLength="144.6416" x="1711.6221" y="211.6133">Hexagonal architecture</text><path d="M1651.6221,178.625 L1661.6221,178.625 C1676.6221,178.625 1676.6221,206.8281 1691.6221,206.8281 L1701.6221,206.8281" fill="none" style="stroke:#181818;stroke-width:1;"/><path d="M1466.2998,249.1328 L1476.2998,249.1328 C1491.2998,249.1328 1491.2998,178.625 1506.2998,178.625 L1516.2998,178.625" fill="none" style="stroke:#181818;stroke-width:1;"/><rect fill="#F1F1F1" height="52.8125" rx="12.5" ry="12.5" style="stroke:#181818;stroke-width:1.5;" width="166.5352" x="1516.2998" y="293.2344"/><text fill="#000000" font-family="sans-serif" font-size="14" lengthAdjust="spacing" textLength="143.0625" x="1526.2998" y="316.2227">Development practices</text><text fill="#000000" font-family="sans-serif" font-size="14" lengthAdjust="spacing" textLength="84.6494" x="1529.7725" y="332.6289">(to fix legacy)</text><text fill="#000000" font-family="sans-serif" font-size="14" lengthAdjust="spacing" textLength="103.7148" x="1735.835" y="250.207">Automated tests</text><path d="M1682.835,319.6406 L1692.835,319.6406 C1707.835,319.6406 1707.835,245.4219 1722.835,245.4219 L1732.835,245.4219" fill="none" style="stroke:#181818;stroke-width:1;"/><text fill="#000000" font-family="sans-serif" font-size="14" lengthAdjust="spacing" textLength="26.7285" x="1735.835" y="268.6133">TDD</text><path d="M1682.835,319.6406 L1692.835,319.6406 C1707.835,319.6406 1707.835,263.8281 1722.835,263.8281 L1732.835,263.8281" fill="none" style="stroke:#181818;stroke-width:1;"/><text fill="#000000" font-family="sans-serif" font-size="14" lengthAdjust="spacing" textLength="72.167" x="1735.835" y="287.0195">Refactoring</text><path d="M1682.835,319.6406 L1692.835,319.6406 C1707.835,319.6406 1707.835,282.2344 1722.835,282.2344 L1732.835,282.2344" fill="none" style="stroke:#181818;stroke-width:1;"/><rect fill="#F1F1F1" height="36.4063" rx="12.5" ry="12.5" style="stroke:#181818;stroke-width:1.5;" width="122.6895" x="1732.835" y="301.4375"/><text fill="#000000" font-family="sans-serif" font-size="14" lengthAdjust="spacing" textLength="102.6895" x="1742.835" y="324.4258">Change patterns</text><rect fill="#F1F1F1" height="36.4063" rx="12.5" ry="12.5" style="stroke:#181818;stroke-width:1.5;" width="76.417" x="1905.5244" y="245.0313"/><text fill="#000000" font-family="sans-serif" font-size="14" lengthAdjust="spacing" textLength="56.417" x="1915.5244" y="268.0195">Strangler</text><path d="M1855.5244,319.6406 L1865.5244,319.6406 C1880.5244,319.6406 1880.5244,263.2344 1895.5244,263.2344 L1905.5244,263.2344" fill="none" style="stroke:#181818;stroke-width:1;"/><rect fill="#F1F1F1" height="36.4063" rx="12.5" ry="12.5" style="stroke:#181818;stroke-width:1.5;" width="101.5049" x="1905.5244" y="301.4375"/><text fill="#000000" font-family="sans-serif" font-size="14" lengthAdjust="spacing" textLength="78.0322" x="1915.5244" y="324.4258">Seam Model</text><text fill="#000000" font-family="sans-serif" font-size="14" lengthAdjust="spacing" textLength="35.1777" x="2060.0293" y="324.4258">Book:</text><a href="https://understandlegacycode.com/blog/key-points-of-working-effectively-with-legacy-code/" target="_top" title="https://understandlegacycode.com/blog/key-points-of-working-effectively-with-legacy-code/" xlink:actuate="onRequest" xlink:href="https://understandlegacycode.com/blog/key-points-of-working-effectively-with-legacy-code/" xlink:show="new" xlink:title="https://understandlegacycode.com/blog/key-points-of-working-effectively-with-legacy-code/" xlink:type="simple"><text fill="#0000FF" font-family="sans-serif" font-size="14" lengthAdjust="spacing" text-decoration="underline" textLength="192.2607" x="2098.6797" y="324.4258">Working effectively with legacy</text></a><text fill="#000000" font-family="sans-serif" font-size="14" lengthAdjust="spacing" textLength="3.4727" x="2290.9404" y="324.4258">&#160;</text><path d="M2007.0293,319.6406 L2017.0293,319.6406 C2032.0293,319.6406 2032.0293,319.6406 2047.0293,319.6406 L2057.0293,319.6406" fill="none" style="stroke:#181818;stroke-width:1;"/><path d="M1855.5244,319.6406 L1865.5244,319.6406 C1880.5244,319.6406 1880.5244,319.6406 1895.5244,319.6406 L1905.5244,319.6406" fill="none" style="stroke:#181818;stroke-width:1;"/><rect fill="#F1F1F1" height="36.4063" rx="12.5" ry="12.5" style="stroke:#181818;stroke-width:1.5;" width="149.8213" x="1905.5244" y="357.8438"/><text fill="#000000" font-family="sans-serif" font-size="14" lengthAdjust="spacing" textLength="129.8213" x="1915.5244" y="380.832">Characterization test</text><path d="M1855.5244,319.6406 L1865.5244,319.6406 C1880.5244,319.6406 1880.5244,376.0469 1895.5244,376.0469 L1905.5244,376.0469" fill="none" style="stroke:#181818;stroke-width:1;"/><path d="M1682.835,319.6406 L1692.835,319.6406 C1707.835,319.6406 1707.835,319.6406 1722.835,319.6406 L1732.835,319.6406" fill="none" style="stroke:#181818;stroke-width:1;"/><path d="M1466.2998,249.1328 L1476.2998,249.1328 C1491.2998,249.1328 1491.2998,319.6406 1506.2998,319.6406 L1516.2998,319.6406" fill="none" style="stroke:#181818;stroke-width:1;"/><path d="M1337.8184,355.8594 L1347.8184,355.8594 C1362.8184,355.8594 1362.8184,249.1328 1377.8184,249.1328 L1387.8184,249.1328" fill="none" style="stroke:#181818;stroke-width:1;"/><rect fill="#F1F1F1" height="36.4063" rx="12.5" ry="12.5" style="stroke:#181818;stroke-width:1.5;" width="147.5176" x="1387.8184" y="516.0781"/><text fill="#000000" font-family="sans-serif" font-size="14" lengthAdjust="spacing" textLength="127.5176" x="1397.8184" y="539.0664">System organization</text><rect fill="#F1F1F1" height="36.4063" rx="12.5" ry="12.5" style="stroke:#181818;stroke-width:1.5;" width="136.1836" x="1585.3359" y="422.8594"/><text fill="#000000" font-family="sans-serif" font-size="14" lengthAdjust="spacing" textLength="116.1836" x="1595.3359" y="445.8477">Intervention points</text><text fill="#000000" font-family="sans-serif" font-size="14" lengthAdjust="spacing" textLength="114.0781" x="1774.5195" y="418.2383">Application (code)</text><path d="M1721.5195,441.0625 L1731.5195,441.0625 C1746.5195,441.0625 1746.5195,413.4531 1761.5195,413.4531 L1771.5195,413.4531" fill="none" style="stroke:#181818;stroke-width:1;"/><text fill="#000000" font-family="sans-serif" font-size="14" lengthAdjust="spacing" textLength="35.6699" x="1774.5195" y="436.6445">Team</text><path d="M1721.5195,441.0625 L1731.5195,441.0625 C1746.5195,441.0625 1746.5195,431.8594 1761.5195,431.8594 L1771.5195,431.8594" fill="none" style="stroke:#181818;stroke-width:1;"/><text fill="#000000" font-family="sans-serif" font-size="14" lengthAdjust="spacing" textLength="89.0586" x="1774.5195" y="455.0508">IT Department</text><path d="M1721.5195,441.0625 L1731.5195,441.0625 C1746.5195,441.0625 1746.5195,450.2656 1761.5195,450.2656 L1771.5195,450.2656" fill="none" style="stroke:#181818;stroke-width:1;"/><text fill="#000000" font-family="sans-serif" font-size="14" lengthAdjust="spacing" textLength="56.6768" x="1774.5195" y="473.457">Business</text><path d="M1721.5195,441.0625 L1731.5195,441.0625 C1746.5195,441.0625 1746.5195,468.6719 1761.5195,468.6719 L1771.5195,468.6719" fill="none" style="stroke:#181818;stroke-width:1;"/><path d="M1535.3359,534.2813 L1545.3359,534.2813 C1560.3359,534.2813 1560.3359,441.0625 1575.3359,441.0625 L1585.3359,441.0625" fill="none" style="stroke:#181818;stroke-width:1;"/><rect fill="#F1F1F1" height="36.4063" rx="12.5" ry="12.5" style="stroke:#181818;stroke-width:1.5;" width="171.8193" x="1585.3359" y="524.6875"/><text fill="#000000" font-family="sans-serif" font-size="14" lengthAdjust="spacing" textLength="151.8193" x="1595.3359" y="547.6758">Take strategic decisions</text><text fill="#000000" font-family="sans-serif" font-size="14" lengthAdjust="spacing" textLength="183.2305" x="1810.1553" y="491.8633">Move to off-the-shelf solution</text><path d="M1757.1553,542.8906 L1767.1553,542.8906 C1782.1553,542.8906 1782.1553,487.0781 1797.1553,487.0781 L1807.1553,487.0781" fill="none" style="stroke:#181818;stroke-width:1;"/><text fill="#000000" font-family="sans-serif" font-size="14" lengthAdjust="spacing" textLength="64.3535" x="1810.1553" y="510.2695">Outsource</text><path d="M1757.1553,542.8906 L1767.1553,542.8906 C1782.1553,542.8906 1782.1553,505.4844 1797.1553,505.4844 L1807.1553,505.4844" fill="none" style="stroke:#181818;stroke-width:1;"/><text fill="#000000" font-family="sans-serif" font-size="14" lengthAdjust="spacing" textLength="168.4512" x="1810.1553" y="528.6758">Buy a specialized company</text><path d="M1757.1553,542.8906 L1767.1553,542.8906 C1782.1553,542.8906 1782.1553,523.8906 1797.1553,523.8906 L1807.1553,523.8906" fill="none" style="stroke:#181818;stroke-width:1;"/><text fill="#000000" font-family="sans-serif" font-size="14" lengthAdjust="spacing" textLength="73.7119" x="1810.1553" y="547.082">Do in-house</text><path d="M1757.1553,542.8906 L1767.1553,542.8906 C1782.1553,542.8906 1782.1553,542.2969 1797.1553,542.2969 L1807.1553,542.2969" fill="none" style="stroke:#181818;stroke-width:1;"/><rect fill="#F1F1F1" height="36.4063" rx="12.5" ry="12.5" style="stroke:#181818;stroke-width:1.5;" width="100.6641" x="1807.1553" y="561.5"/><text fill="#000000" font-family="sans-serif" font-size="14" lengthAdjust="spacing" textLength="80.6641" x="1817.1553" y="584.4883">Tactical DDD</text><path d="M1757.1553,542.8906 L1767.1553,542.8906 C1782.1553,542.8906 1782.1553,579.7031 1797.1553,579.7031 L1807.1553,579.7031" fill="none" style="stroke:#181818;stroke-width:1;"/><path d="M1535.3359,534.2813 L1545.3359,534.2813 C1560.3359,534.2813 1560.3359,542.8906 1575.3359,542.8906 L1585.3359,542.8906" fill="none" style="stroke:#181818;stroke-width:1;"/><rect fill="#F1F1F1" height="36.4063" rx="12.5" ry="12.5" style="stroke:#181818;stroke-width:1.5;" width="211.4541" x="1585.3359" y="617.9063"/><text fill="#000000" font-family="sans-serif" font-size="14" lengthAdjust="spacing" textLength="191.4541" x="1595.3359" y="640.8945">Improve process and workflow</text><text fill="#000000" font-family="sans-serif" font-size="14" lengthAdjust="spacing" textLength="35.1777" x="1849.79" y="631.6914">Book:</text><a href="https://itrevolution.com/product/accelerate/" target="_top" title="https://itrevolution.com/product/accelerate/" xlink:actuate="onRequest" xlink:href="https://itrevolution.com/product/accelerate/" xlink:show="new" xlink:title="https://itrevolution.com/product/accelerate/" xlink:type="simple"><text fill="#0000FF" font-family="sans-serif" font-size="14" lengthAdjust="spacing" text-decoration="underline" textLength="66.4043" x="1888.4404" y="631.6914">Accelerate</text></a><path d="M1796.79,636.1094 L1806.79,636.1094 C1821.79,636.1094 1821.79,626.9063 1836.79,626.9063 L1846.79,626.9063" fill="none" style="stroke:#181818;stroke-width:1;"/><text fill="#000000" font-family="sans-serif" font-size="14" lengthAdjust="spacing" textLength="35.1777" x="1849.79" y="650.0977">Book:</text><a href="https://teamtopologies.com/" target="_top" title="https://teamtopologies.com/" xlink:actuate="onRequest" xlink:href="https://teamtopologies.com/" xlink:show="new" xlink:title="https://teamtopologies.com/" xlink:type="simple"><text fill="#0000FF" font-family="sans-serif" font-size="14" lengthAdjust="spacing" text-decoration="underline" textLength="112.082" x="1888.4404" y="650.0977">Teams topologies</text></a><path d="M1796.79,636.1094 L1806.79,636.1094 C1821.79,636.1094 1821.79,645.3125 1836.79,645.3125 L1846.79,645.3125" fill="none" style="stroke:#181818;stroke-width:1;"/><path d="M1535.3359,534.2813 L1545.3359,534.2813 C1560.3359,534.2813 1560.3359,636.1094 1575.3359,636.1094 L1585.3359,636.1094" fill="none" style="stroke:#181818;stroke-width:1;"/><path d="M1337.8184,355.8594 L1347.8184,355.8594 C1362.8184,355.8594 1362.8184,534.2813 1377.8184,534.2813 L1387.8184,534.2813" fill="none" style="stroke:#181818;stroke-width:1;"/><path d="M1209.4736,604.7891 L1219.4736,604.7891 C1234.4736,604.7891 1234.4736,355.8594 1249.4736,355.8594 L1259.4736,355.8594" fill="none" style="stroke:#181818;stroke-width:1;"/><rect fill="#F1F1F1" height="36.4063" rx="12.5" ry="12.5" style="stroke:#181818;stroke-width:1.5;" width="97.123" x="1259.4736" y="895.0391"/><text fill="#000000" font-family="sans-serif" font-size="14" lengthAdjust="spacing" textLength="77.123" x="1269.4736" y="918.0273">Our services</text><rect fill="#F1F1F1" height="36.4063" rx="12.5" ry="12.5" style="stroke:#181818;stroke-width:1.5;" width="108.71" x="1406.5967" y="674.3125"/><text fill="#000000" font-family="sans-serif" font-size="14" lengthAdjust="spacing" textLength="88.71" x="1416.5967" y="697.3008">Audit &amp; DueDil</text><path d="M1356.5967,913.2422 L1366.5967,913.2422 C1381.5967,913.2422 1381.5967,692.5156 1396.5967,692.5156 L1406.5967,692.5156" fill="none" style="stroke:#181818;stroke-width:1;"/><rect fill="#F1F1F1" height="36.4063" rx="12.5" ry="12.5" style="stroke:#181818;stroke-width:1.5;" width="182.0801" x="1406.5967" y="730.7188"/><text fill="#000000" font-family="sans-serif" font-size="14" lengthAdjust="spacing" textLength="162.0801" x="1416.5967" y="753.707">Request for proposal (AO)</text><path d="M1356.5967,913.2422 L1366.5967,913.2422 C1381.5967,913.2422 1381.5967,748.9219 1396.5967,748.9219 L1406.5967,748.9219" fill="none" style="stroke:#181818;stroke-width:1;"/><rect fill="#F1F1F1" height="36.4063" rx="12.5" ry="12.5" style="stroke:#181818;stroke-width:1.5;" width="86.7529" x="1406.5967" y="815.3281"/><text fill="#000000" font-family="sans-serif" font-size="14" lengthAdjust="spacing" textLength="66.7529" x="1416.5967" y="838.3164">Consulting</text><rect fill="#F1F1F1" height="36.4063" rx="12.5" ry="12.5" style="stroke:#181818;stroke-width:1.5;" width="202.4854" x="1543.3496" y="787.125"/><text fill="#000000" font-family="sans-serif" font-size="14" lengthAdjust="spacing" textLength="182.4854" x="1553.3496" y="810.1133">Advice on strategic decisions</text><path d="M1493.3496,833.5313 L1503.3496,833.5313 C1518.3496,833.5313 1518.3496,805.3281 1533.3496,805.3281 L1543.3496,805.3281" fill="none" style="stroke:#181818;stroke-width:1;"/><rect fill="#F1F1F1" height="36.4063" rx="12.5" ry="12.5" style="stroke:#181818;stroke-width:1.5;" width="113.7549" x="1543.3496" y="843.5313"/><text fill="#000000" font-family="sans-serif" font-size="14" lengthAdjust="spacing" textLength="93.7549" x="1553.3496" y="866.5195">Event storming</text><text fill="#000000" font-family="sans-serif" font-size="14" lengthAdjust="spacing" textLength="58.748" x="1710.1045" y="866.5195">Coaching</text><path d="M1657.1045,861.7344 L1667.1045,861.7344 C1682.1045,861.7344 1682.1045,861.7344 1697.1045,861.7344 L1707.1045,861.7344" fill="none" style="stroke:#181818;stroke-width:1;"/><path d="M1493.3496,833.5313 L1503.3496,833.5313 C1518.3496,833.5313 1518.3496,861.7344 1533.3496,861.7344 L1543.3496,861.7344" fill="none" style="stroke:#181818;stroke-width:1;"/><path d="M1356.5967,913.2422 L1366.5967,913.2422 C1381.5967,913.2422 1381.5967,833.5313 1396.5967,833.5313 L1406.5967,833.5313" fill="none" style="stroke:#181818;stroke-width:1;"/><rect fill="#F1F1F1" height="36.4063" rx="12.5" ry="12.5" style="stroke:#181818;stroke-width:1.5;" width="70.8457" x="1406.5967" y="890.1406"/><text fill="#000000" font-family="sans-serif" font-size="14" lengthAdjust="spacing" textLength="50.8457" x="1416.5967" y="913.1289">Training</text><a href="https://www.octo.academy/catalogue/formation/tdd02-test-driven-development-sur-du-code-legacy/" target="_top" title="https://www.octo.academy/catalogue/formation/tdd02-test-driven-development-sur-du-code-legacy/" xlink:actuate="onRequest" xlink:href="https://www.octo.academy/catalogue/formation/tdd02-test-driven-development-sur-du-code-legacy/" xlink:show="new" xlink:title="https://www.octo.academy/catalogue/formation/tdd02-test-driven-development-sur-du-code-legacy/" xlink:type="simple"><text fill="#0000FF" font-family="sans-serif" font-size="14" lengthAdjust="spacing" text-decoration="underline" textLength="97.6719" x="1530.4424" y="903.9258">Legacy - TDD02</text></a><path d="M1477.4424,908.3438 L1487.4424,908.3438 C1502.4424,908.3438 1502.4424,899.1406 1517.4424,899.1406 L1527.4424,899.1406" fill="none" style="stroke:#181818;stroke-width:1;"/><a href="https://www.octo.academy/catalogue/formation/tdd02-test-driven-development-sur-du-code-legacy/" target="_top" title="https://www.octo.academy/catalogue/formation/tdd02-test-driven-development-sur-du-code-legacy/" xlink:actuate="onRequest" xlink:href="https://www.octo.academy/catalogue/formation/tdd02-test-driven-development-sur-du-code-legacy/" xlink:show="new" xlink:title="https://www.octo.academy/catalogue/formation/tdd02-test-driven-development-sur-du-code-legacy/" xlink:type="simple"><text fill="#0000FF" font-family="sans-serif" font-size="14" lengthAdjust="spacing" text-decoration="underline" textLength="98.5059" x="1530.4424" y="922.332">Legacy - DDD01</text></a><path d="M1477.4424,908.3438 L1487.4424,908.3438 C1502.4424,908.3438 1502.4424,917.5469 1517.4424,917.5469 L1527.4424,917.5469" fill="none" style="stroke:#181818;stroke-width:1;"/><path d="M1356.5967,913.2422 L1366.5967,913.2422 C1381.5967,913.2422 1381.5967,908.3438 1396.5967,908.3438 L1406.5967,908.3438" fill="none" style="stroke:#181818;stroke-width:1;"/><rect fill="#F1F1F1" height="36.4063" rx="12.5" ry="12.5" style="stroke:#181818;stroke-width:1.5;" width="68.9932" x="1406.5967" y="1031.1563"/><text fill="#000000" font-family="sans-serif" font-size="14" lengthAdjust="spacing" textLength="48.9932" x="1416.5967" y="1054.1445">Delivery</text><rect fill="#F1F1F1" height="36.4063" rx="12.5" ry="12.5" style="stroke:#181818;stroke-width:1.5;" width="78.748" x="1525.5898" y="946.5469"/><text fill="#000000" font-family="sans-serif" font-size="14" lengthAdjust="spacing" textLength="58.748" x="1535.5898" y="969.5352">Coaching</text><path d="M1475.5898,1049.3594 L1485.5898,1049.3594 C1500.5898,1049.3594 1500.5898,964.75 1515.5898,964.75 L1525.5898,964.75" fill="none" style="stroke:#181818;stroke-width:1;"/><rect fill="#F1F1F1" height="36.4063" rx="12.5" ry="12.5" style="stroke:#181818;stroke-width:1.5;" width="133.2441" x="1525.5898" y="1002.9531"/><text fill="#000000" font-family="sans-serif" font-size="14" lengthAdjust="spacing" textLength="113.2441" x="1535.5898" y="1025.9414">Technical Leading</text><path d="M1475.5898,1049.3594 L1485.5898,1049.3594 C1500.5898,1049.3594 1500.5898,1021.1563 1515.5898,1021.1563 L1525.5898,1021.1563" fill="none" style="stroke:#181818;stroke-width:1;"/><rect fill="#F1F1F1" height="36.4063" rx="12.5" ry="12.5" style="stroke:#181818;stroke-width:1.5;" width="102.0791" x="1525.5898" y="1059.3594"/><text fill="#000000" font-family="sans-serif" font-size="14" lengthAdjust="spacing" textLength="82.0791" x="1535.5898" y="1082.3477">Development</text><path d="M1475.5898,1049.3594 L1485.5898,1049.3594 C1500.5898,1049.3594 1500.5898,1077.5625 1515.5898,1077.5625 L1525.5898,1077.5625" fill="none" style="stroke:#181818;stroke-width:1;"/><rect fill="#F1F1F1" height="36.4063" rx="12.5" ry="12.5" style="stroke:#181818;stroke-width:1.5;" width="46.7764" x="1525.5898" y="1115.7656"/><text fill="#000000" font-family="sans-serif" font-size="14" lengthAdjust="spacing" textLength="26.7764" x="1535.5898" y="1138.7539">OPS</text><path d="M1475.5898,1049.3594 L1485.5898,1049.3594 C1500.5898,1049.3594 1500.5898,1133.9688 1515.5898,1133.9688 L1525.5898,1133.9688" fill="none" style="stroke:#181818;stroke-width:1;"/><path d="M1356.5967,913.2422 L1366.5967,913.2422 C1381.5967,913.2422 1381.5967,1049.3594 1396.5967,1049.3594 L1406.5967,1049.3594" fill="none" style="stroke:#181818;stroke-width:1;"/><path d="M1209.4736,604.7891 L1219.4736,604.7891 C1234.4736,604.7891 1234.4736,913.2422 1249.4736,913.2422 L1259.4736,913.2422" fill="none" style="stroke:#181818;stroke-width:1;"/><rect fill="#F1F1F1" height="36.4063" rx="12.5" ry="12.5" style="stroke:#181818;stroke-width:1.5;" width="119.4355" x="930.3711" y="389.7578"/><text fill="#000000" font-family="sans-serif" font-size="14" lengthAdjust="spacing" textLength="99.4355" x="940.3711" y="412.7461">System thinking</text><text fill="#000000" font-family="sans-serif" font-size="14" lengthAdjust="spacing" textLength="57.2031" x="710.0342" y="403.543">Website :</text><a href="https://web.archive.org/web/20230923142459/https://www.systems-thinking.org/theWay/theWay.htm" target="_top" title="https://web.archive.org/web/20230923142459/https://www.systems-thinking.org/theWay/theWay.htm" xlink:actuate="onRequest" xlink:href="https://web.archive.org/web/20230923142459/https://www.systems-thinking.org/theWay/theWay.htm" xlink:show="new" xlink:title="https://web.archive.org/web/20230923142459/https://www.systems-thinking.org/theWay/theWay.htm" xlink:type="simple"><text fill="#0000FF" font-family="sans-serif" font-size="14" lengthAdjust="spacing" text-decoration="underline" textLength="106.6611" x="770.71" y="403.543">Systems thinking</text></a><path d="M930.3711,407.9609 L920.3711,407.9609 C905.3711,407.9609 905.3711,398.7578 890.3711,398.7578 L880.3711,398.7578" fill="none" style="stroke:#181818;stroke-width:1;"/><text fill="#000000" font-family="sans-serif" font-size="14" lengthAdjust="spacing" textLength="38.6504" x="747.29" y="421.9492">Book :</text><a href="https://verraes.net/2013/08/john-gall-systemantics-the-systems-bible/" target="_top" title="https://verraes.net/2013/08/john-gall-systemantics-the-systems-bible/" xlink:actuate="onRequest" xlink:href="https://verraes.net/2013/08/john-gall-systemantics-the-systems-bible/" xlink:show="new" xlink:title="https://verraes.net/2013/08/john-gall-systemantics-the-systems-bible/" xlink:type="simple"><text fill="#0000FF" font-family="sans-serif" font-size="14" lengthAdjust="spacing" text-decoration="underline" textLength="87.958" x="789.4131" y="421.9492">Systems Bible</text></a><path d="M930.3711,407.9609 L920.3711,407.9609 C905.3711,407.9609 905.3711,417.1641 890.3711,417.1641 L880.3711,417.1641" fill="none" style="stroke:#181818;stroke-width:1;"/><path d="M1099.8066,604.7891 L1089.8066,604.7891 C1074.8066,604.7891 1074.8066,407.9609 1059.8066,407.9609 L1049.8066,407.9609" fill="none" style="stroke:#181818;stroke-width:1;"/><rect fill="#F1F1F1" height="36.4063" rx="12.5" ry="12.5" style="stroke:#181818;stroke-width:1.5;" width="79.7529" x="970.0537" y="614.7891"/><text fill="#000000" font-family="sans-serif" font-size="14" lengthAdjust="spacing" textLength="59.7529" x="980.0537" y="637.7773">Problems</text><rect fill="#F1F1F1" height="36.4063" rx="12.5" ry="12.5" style="stroke:#181818;stroke-width:1.5;" width="107.9922" x="812.0615" y="446.1641"/><text fill="#000000" font-family="sans-serif" font-size="14" lengthAdjust="spacing" textLength="87.9922" x="822.0615" y="469.1523">Obsolescence</text><text fill="#000000" font-family="sans-serif" font-size="14" lengthAdjust="spacing" textLength="170.0234" x="589.0381" y="450.7461">Unmaintained technologies</text><path d="M812.0615,464.3672 L802.0615,464.3672 C787.0615,464.3672 787.0615,445.9609 772.0615,445.9609 L762.0615,445.9609" fill="none" style="stroke:#181818;stroke-width:1;"/><text fill="#000000" font-family="sans-serif" font-size="14" lengthAdjust="spacing" textLength="163.6387" x="595.4229" y="469.1523">Unsupported technologies</text><path d="M812.0615,464.3672 L802.0615,464.3672 C787.0615,464.3672 787.0615,464.3672 772.0615,464.3672 L762.0615,464.3672" fill="none" style="stroke:#181818;stroke-width:1;"/><text fill="#000000" font-family="sans-serif" font-size="14" lengthAdjust="spacing" textLength="203.2119" x="555.8496" y="487.5586">Rarefaction of skilled developers</text><path d="M812.0615,464.3672 L802.0615,464.3672 C787.0615,464.3672 787.0615,482.7734 772.0615,482.7734 L762.0615,482.7734" fill="none" style="stroke:#181818;stroke-width:1;"/><path d="M970.0537,632.9922 L960.0537,632.9922 C945.0537,632.9922 945.0537,464.3672 930.0537,464.3672 L920.0537,464.3672" fill="none" style="stroke:#181818;stroke-width:1;"/><rect fill="#F1F1F1" height="36.4063" rx="12.5" ry="12.5" style="stroke:#181818;stroke-width:1.5;" width="64.3926" x="855.6611" y="642.9922"/><text fill="#000000" font-family="sans-serif" font-size="14" lengthAdjust="spacing" textLength="44.3926" x="865.6611" y="665.9805">Legacy</text><rect fill="#F1F1F1" height="36.4063" rx="12.5" ry="12.5" style="stroke:#181818;stroke-width:1.5;" width="214.6602" x="591.001" y="502.5703"/><text fill="#000000" font-family="sans-serif" font-size="14" lengthAdjust="spacing" textLength="194.6602" x="601.001" y="525.5586">All brownfields are not legacies</text><text fill="#000000" font-family="sans-serif" font-size="14" lengthAdjust="spacing" textLength="37.9736" x="438.3193" y="525.5586">BONO</text><a href="https://blog.octo.com/le-brownfield-n'est-pas-du-code-legacy" target="_top" title="https://blog.octo.com/le-brownfield-n'est-pas-du-code-legacy" xlink:actuate="onRequest" xlink:href="https://blog.octo.com/le-brownfield-n'est-pas-du-code-legacy" xlink:show="new" xlink:title="https://blog.octo.com/le-brownfield-n'est-pas-du-code-legacy" xlink:type="simple"><text fill="#0000FF" font-family="sans-serif" font-size="14" lengthAdjust="spacing" text-decoration="underline" textLength="58.2354" x="479.7656" y="525.5586">blog post</text></a><path d="M591.001,520.7734 L581.001,520.7734 C566.001,520.7734 566.001,520.7734 551.001,520.7734 L541.001,520.7734" fill="none" style="stroke:#181818;stroke-width:1;"/><path d="M855.6611,661.1953 L845.6611,661.1953 C830.6611,661.1953 830.6611,520.7734 815.6611,520.7734 L805.6611,520.7734" fill="none" style="stroke:#181818;stroke-width:1;"/><rect fill="#F1F1F1" height="36.4063" rx="12.5" ry="12.5" style="stroke:#181818;stroke-width:1.5;" width="66.3203" x="739.3408" y="642.9922"/><text fill="#000000" font-family="sans-serif" font-size="14" lengthAdjust="spacing" textLength="46.3203" x="749.3408" y="665.9805">Causes</text><rect fill="#F1F1F1" height="36.4063" rx="12.5" ry="12.5" style="stroke:#181818;stroke-width:1.5;" width="169.0234" x="520.3174" y="615.3828"/><text fill="#000000" font-family="sans-serif" font-size="14" lengthAdjust="spacing" textLength="149.0234" x="530.3174" y="638.3711">Endemic Technical debt</text><rect fill="#F1F1F1" height="36.4063" rx="12.5" ry="12.5" style="stroke:#181818;stroke-width:1.5;" width="157.1494" x="313.168" y="558.9766"/><text fill="#000000" font-family="sans-serif" font-size="14" lengthAdjust="spacing" textLength="137.1494" x="323.168" y="581.9648">Accidental complexity</text><path d="M520.3174,633.5859 L510.3174,633.5859 C495.3174,633.5859 495.3174,577.1797 480.3174,577.1797 L470.3174,577.1797" fill="none" style="stroke:#181818;stroke-width:1;"/><rect fill="#F1F1F1" height="36.4063" rx="12.5" ry="12.5" style="stroke:#181818;stroke-width:1.5;" width="155.1191" x="315.1982" y="615.3828"/><text fill="#000000" font-family="sans-serif" font-size="14" lengthAdjust="spacing" textLength="131.6465" x="325.1982" y="638.3711">Conflicting heuristics</text><text fill="#000000" font-family="sans-serif" font-size="14" lengthAdjust="spacing" textLength="217.4785" x="44.7197" y="619.9648">Wrong choices in the initial context</text><path d="M315.1982,633.5859 L305.1982,633.5859 C290.1982,633.5859 290.1982,615.1797 275.1982,615.1797 L265.1982,615.1797" fill="none" style="stroke:#181818;stroke-width:1;"/><text fill="#000000" font-family="sans-serif" font-size="14" lengthAdjust="spacing" textLength="252.1982" x="10" y="638.3711">Context has changed but no remediation</text><path d="M315.1982,633.5859 L305.1982,633.5859 C290.1982,633.5859 290.1982,633.5859 275.1982,633.5859 L265.1982,633.5859" fill="none" style="stroke:#181818;stroke-width:1;"/><text fill="#000000" font-family="sans-serif" font-size="14" lengthAdjust="spacing" textLength="27.4531" x="173.0371" y="656.7773">CTH</text><a href="https://blog.octo.com/en-finir-avec-la-dette-technique" target="_top" title="https://blog.octo.com/en-finir-avec-la-dette-technique" xlink:actuate="onRequest" xlink:href="https://blog.octo.com/en-finir-avec-la-dette-technique" xlink:show="new" xlink:title="https://blog.octo.com/en-finir-avec-la-dette-technique" xlink:type="simple"><text fill="#0000FF" font-family="sans-serif" font-size="14" lengthAdjust="spacing" text-decoration="underline" textLength="58.2354" x="203.9629" y="656.7773">blog post</text></a><path d="M315.1982,633.5859 L305.1982,633.5859 C290.1982,633.5859 290.1982,651.9922 275.1982,651.9922 L265.1982,651.9922" fill="none" style="stroke:#181818;stroke-width:1;"/><path d="M520.3174,633.5859 L510.3174,633.5859 C495.3174,633.5859 495.3174,633.5859 480.3174,633.5859 L470.3174,633.5859" fill="none" style="stroke:#181818;stroke-width:1;"/><rect fill="#F1F1F1" height="36.4063" rx="12.5" ry="12.5" style="stroke:#181818;stroke-width:1.5;" width="179.8379" x="290.4795" y="671.7891"/><text fill="#000000" font-family="sans-serif" font-size="14" lengthAdjust="spacing" textLength="159.8379" x="300.4795" y="694.7773">Strategic is not a problem</text><path d="M520.3174,633.5859 L510.3174,633.5859 C495.3174,633.5859 495.3174,689.9922 480.3174,689.9922 L470.3174,689.9922" fill="none" style="stroke:#181818;stroke-width:1;"/><path d="M739.3408,661.1953 L729.3408,661.1953 C714.3408,661.1953 714.3408,633.5859 699.3408,633.5859 L689.3408,633.5859" fill="none" style="stroke:#181818;stroke-width:1;"/><text fill="#000000" font-family="sans-serif" font-size="14" lengthAdjust="spacing" textLength="186.5732" x="499.7676" y="732.1836">Core business and complexity</text><path d="M739.3408,661.1953 L729.3408,661.1953 C714.3408,661.1953 714.3408,727.3984 699.3408,727.3984 L689.3408,727.3984" fill="none" style="stroke:#181818;stroke-width:1;"/><text fill="#000000" font-family="sans-serif" font-size="14" lengthAdjust="spacing" textLength="247.2969" x="439.0439" y="750.5898">Long-lived codebase =&gt; Huge codebase</text><path d="M739.3408,661.1953 L729.3408,661.1953 C714.3408,661.1953 714.3408,745.8047 699.3408,745.8047 L689.3408,745.8047" fill="none" style="stroke:#181818;stroke-width:1;"/><text fill="#000000" font-family="sans-serif" font-size="14" lengthAdjust="spacing" textLength="191.2422" x="495.0986" y="768.9961">No automated tests (Feathers)</text><path d="M739.3408,661.1953 L729.3408,661.1953 C714.3408,661.1953 714.3408,764.2109 699.3408,764.2109 L689.3408,764.2109" fill="none" style="stroke:#181818;stroke-width:1;"/><path d="M855.6611,661.1953 L845.6611,661.1953 C830.6611,661.1953 830.6611,661.1953 815.6611,661.1953 L805.6611,661.1953" fill="none" style="stroke:#181818;stroke-width:1;"/><rect fill="#F1F1F1" height="36.4063" rx="12.5" ry="12.5" style="stroke:#181818;stroke-width:1.5;" width="207.6191" x="598.042" y="783.4141"/><text fill="#000000" font-family="sans-serif" font-size="14" lengthAdjust="spacing" textLength="187.6191" x="608.042" y="806.4023">Symptoms = change is painful</text><text fill="#000000" font-family="sans-serif" font-size="14" lengthAdjust="spacing" textLength="61.3662" x="483.6758" y="797.1992">High TTM</text><path d="M598.042,801.6172 L588.042,801.6172 C573.042,801.6172 573.042,792.4141 558.042,792.4141 L548.042,792.4141" fill="none" style="stroke:#181818;stroke-width:1;"/><text fill="#000000" font-family="sans-serif" font-size="14" lengthAdjust="spacing" textLength="103.7764" x="441.2656" y="815.6055">High default rate</text><path d="M598.042,801.6172 L588.042,801.6172 C573.042,801.6172 573.042,810.8203 558.042,810.8203 L548.042,810.8203" fill="none" style="stroke:#181818;stroke-width:1;"/><path d="M855.6611,661.1953 L845.6611,661.1953 C830.6611,661.1953 830.6611,801.6172 815.6611,801.6172 L805.6611,801.6172" fill="none" style="stroke:#181818;stroke-width:1;"/><path d="M970.0537,632.9922 L960.0537,632.9922 C945.0537,632.9922 945.0537,661.1953 930.0537,661.1953 L920.0537,661.1953" fill="none" style="stroke:#181818;stroke-width:1;"/><path d="M1099.8066,604.7891 L1089.8066,604.7891 C1074.8066,604.7891 1074.8066,632.9922 1059.8066,632.9922 L1049.8066,632.9922" fill="none" style="stroke:#181818;stroke-width:1;"/><g class="caption" data-source-line="2"><text fill="#000000" font-family="sans-serif" font-size="14" lengthAdjust="spacing" textLength="30.9941" x="1136.2095" y="1176.1602">Draft</text></g><!--SRC=[lLPHK-Cs47xthzYPphGm6SKXG7l7p7KE25UWS658xkxXoZ2AlOvLPCcLv8JSh-zAiaroLrxx4B1NgztLVjz-ydlhk76LK7d5woJ9UEs4LZ0nl7294quYdDQr51aFzahdQ9Ju5jwIPF3rfwdXQeaFSBkpmXZCDjPX1QuKwace9PdO8tp1XHKEuGI-VYsTg-r9cgvnCUGcAyKAXzei_Niw7eqFHs_7XmT7uwFZjsdlkbuFROXhMHSux74bVk6Rzj-mT5MRtlRv7nvY1MTQF-saNw4n7ErGeQEq1uVfw4twjouLMt8fMSp6bHEPJuciIxyG2ubfd-RCluOSS6SqFLVMvuFfmcg9DaELeJTG1PzKnOLozCCS76Qbqb8l1Tf-tJPrhOtxx-LxRh3WMO135s2VX9JacUCAfQxHnBmtkEJP9co1KobXOVHQ5G9bRe42WD8EfFVf0llMJ3zEjngpeBH3dJazp7ILIcGlCPZw1QrZDRSiRrX6qBCGR0D-4zJQkjXl1kUyiLqAk50vLYA3kJyMSKfIsGiN5wdEB1CvKcSaKCPQuhDmcsxnNAk2QEW8IYYnCS9wIA1TzjGocfQoKeiCBGX5o2Fz4qw4UChXitlnFey6ABcbFPx2EImQHtq1WnNcekDnvp-_VBKrg5X1YGpZAyoOv2n7vv05xCG_3VxG53yTpd27I-g5i04C3dNaJT9NI30j6aiqiOIPodzeoYFSq96PfC7nYzHARX7U_GwNpH9xG-VxKGDldAvuv9Lr5lO-8ASk6RiViPfjgfeyBBnhU-ABguceHIExC9TYMS9yVhlpdXCZ6-d0doaP362cPUFxP-c5tZBYfNyQFC9K0Hs7G1QxAFUhsVQnm_OxuzbEe0Odk4SIeKPoqsbDi6wBL8vMBADz0FEmcP9D9fFMT8dFVAaLsOBi44wkCR50cCGnggX20gHD37yfs7CQ2l4SXsQp7qCzmkbkIplpl4j6yngcLHklWJ7_UUnjpOabHhLx1e4IQYdHz0RaLT1L2Qrf4FLhMxuQ6Yb38gxoM9c7FR3IaovzmWshDQcDPRfWQssy538i2ZepqKPks5guiXtUCCWfV8bUiEK5tgiz-iD3Luq_Y6yHTb247aJ8e_YJD7ErWzCLZPrPUVp9FLRMjt8BmZrVIj_aEJMYUxwQ4qQrlxCeI6Sys-ABX_m9mVO3bcCcR4T6xtshLmW4fowAAEabIXBIbhETrxHnLZScmvSa6vfIMrCuBiKtZ0F9rQPpc6ZI6rPg4hpNo0TN5OqvfQU_MJVN7fP2wdNo7SJGOIoSmLLRNi2MTkTDvbAUPKY4eOEcNZtRPo2PUIsKerOwNRTNIWWMsaiNPMyDs-dy1YnXrKqUKJqN3dw6IOCJ8PCuYoHlra6XZJyHIHoTTUzq6f3p6cj95JhYmsdkWm71-neuSE6fGSlQLFsyU2daDAVn7UQ61AbRVDm-c_yw2ABCCqxtp2ObCd4wKeCf5LW5PgKkpqTZvedASaFaLYn_6Nbc6_FTZPQsLoamFzIZSTlR_pKniMTq41CJ-RtUcqYwdSuCjgxL6-HvRzxIj6YOtisIzqYVVDrdtvsaBvnFjpT0aJqQS32aBx3ZuU7Uh55mJR_H0HoCJev_EnaVmVd5R0v-VJ_P- -Fk1kAOG4vNiX6BmDBzv9glEDmtDEWLdi2qHdKz-RCpq8V0Ij1z7Kgw_dpxul3h4JiZbisyI1ZuV9jCsglbGb5lw4Wdy6d-WRr9RaWh6xwasAYISqrnpORMPly2]--></g></svg>